<?xml version="1.0" encoding="utf-8"?>
<!-- Generator: Adobe Illustrator 16.0.0, SVG Export Plug-In . SVG Version: 6.00 Build 0)  -->
<!DOCTYPE svg PUBLIC "-//W3C//DTD SVG 1.1//EN" "http://www.w3.org/Graphics/SVG/1.1/DTD/svg11.dtd">
<svg version="1.1" id="Layer_1" xmlns="http://www.w3.org/2000/svg" xmlns:xlink="http://www.w3.org/1999/xlink" x="0px" y="0px"
	 width="283.46px" height="283.46px" viewBox="0 0 283.46 283.46" enable-background="new 0 0 283.46 283.46" xml:space="preserve">
<g>
	<path d="M245.219,141.181c-10.983-10.975-103.534-11.117-103.534-11.108c0-0.009-92.532,0.142-103.542,11.099
		c-11.011,10.994-11.037,65.222-11.037,65.542c0,0.416,0.026,54.558,11.037,65.55c11.002,10.957,103.542,11.197,103.542,11.197
		s92.55-0.24,103.534-11.197c11.056-11.02,11.144-65.55,11.144-65.55C256.363,206.404,256.239,152.173,245.219,141.181z
		 M97.679,173.141H82.097v78.784H67.021v-78.784H51.439v-13.394h46.24V173.141z M141.73,251.916h-13.349v-7.467
		c-2.489,2.764-5.041,4.872-7.733,6.299c-2.675,1.461-5.252,2.16-7.769,2.16c-3.1,0-5.403-0.992-6.998-3.037
		c-1.542-2.038-2.339-5.041-2.339-9.107v-56.859h13.358v52.165c0,1.621,0.283,2.772,0.824,3.499c0.593,0.727,1.506,1.08,2.746,1.08
		c0.983,0,2.241-0.478,3.738-1.443c1.506-0.957,2.87-2.17,4.155-3.641v-51.67h13.367V251.916z M190.255,237.876
		c0,4.81-1.046,8.494-3.145,11.072c-2.073,2.578-5.129,3.836-9.098,3.836c-2.631,0-4.952-0.479-6.989-1.471
		c-2.046-0.992-3.978-2.507-5.714-4.606v5.218h-13.518v-92.178h13.518v29.684c1.816-2.072,3.712-3.658,5.731-4.73
		c2.046-1.09,4.093-1.621,6.165-1.621c4.243,0,7.468,1.443,9.691,4.332c2.25,2.905,3.357,7.148,3.357,12.72V237.876z
		 M236.619,219.576h-25.574v12.781c0,3.588,0.435,6.068,1.303,7.459c0.903,1.391,2.4,2.064,4.535,2.064
		c2.215,0,3.765-0.585,4.642-1.754c0.877-1.17,1.337-3.748,1.337-7.76v-3.101h13.748v3.489c0,6.98-1.665,12.225-5.031,15.777
		c-3.33,3.517-8.344,5.262-14.996,5.262c-5.979,0-10.71-1.852-14.146-5.599c-3.429-3.72-5.183-8.867-5.183-15.431v-30.534
		c0-5.882,1.905-10.71,5.687-14.421c3.774-3.712,8.646-5.572,14.643-5.572c6.121,0,10.825,1.728,14.121,5.164
		c3.285,3.429,4.916,8.371,4.916,14.829V219.576L236.619,219.576z"/>
	<path d="M217.015,194.134c-2.126,0-3.658,0.594-4.598,1.869c-0.93,1.196-1.381,3.251-1.381,6.095v6.865h11.816v-6.865
		c0-2.853-0.479-4.898-1.418-6.095C220.558,194.728,219.043,194.134,217.015,194.134z"/>
	<path d="M170.909,193.896c-0.966,0-1.904,0.194-2.835,0.654c-0.93,0.443-1.842,1.144-2.754,2.073v42.378
		c1.08,1.089,2.143,1.922,3.18,2.4c1.027,0.479,2.09,0.734,3.225,0.734c1.639,0,2.834-0.478,3.604-1.443
		c0.763-0.947,1.169-2.489,1.169-4.678v-35.121c0-2.295-0.479-4.049-1.417-5.227C174.107,194.48,172.707,193.896,170.909,193.896z"
		/>
</g>
<path d="M216.962,101.549h-15.059v-8.273c-2.746,3.039-5.643,5.386-8.654,6.963c-3.004,1.594-5.909,2.392-8.734,2.392
	c-3.508,0-6.104-1.116-7.866-3.349c-1.754-2.232-2.64-5.572-2.64-10.045V26.627h15.031v57.436c0,1.772,0.346,3.056,0.975,3.845
	c0.611,0.797,1.656,1.196,3.057,1.196c1.098,0,2.507-0.532,4.199-1.577c1.683-1.045,3.242-2.392,4.633-4.039v-56.86h15.059V101.549
	L216.962,101.549z"/>
<path d="M155.832,30.188c-3.994-3.632-9.105-5.448-15.333-5.448c-6.83,0-12.286,1.728-16.334,5.164
	c-4.066,3.428-6.095,8.052-6.086,13.863v38.825c0,6.369,1.984,11.427,5.917,15.2c3.959,3.756,9.239,5.643,15.812,5.643
	c6.848,0,12.207-1.825,16.131-5.475c3.889-3.658,5.837-8.672,5.837-15.077V44.193C161.785,38.479,159.792,33.812,155.832,30.188z
	 M146.451,84.01c0,1.993-0.593,3.57-1.797,4.73c-1.215,1.134-2.817,1.709-4.855,1.709c-2.002,0-3.534-0.549-4.597-1.674
	c-1.063-1.143-1.612-2.719-1.612-4.766V43.201c0-1.639,0.594-2.968,1.728-3.978c1.16-1.001,2.64-1.506,4.491-1.506
	c1.976,0,3.588,0.496,4.81,1.506c1.231,1.01,1.843,2.339,1.843,3.978V84.01H146.451z"/>
<polygon points="77.083,0 60.005,0 80.192,61.316 80.192,101.549 97.138,101.549 97.138,59.412 116.865,0 99.627,0 89.157,40.588 
	88.094,40.588 77.083,0 "/>
</svg>
