<svg width="54px" height="54px" viewBox="0 0 54 54" xml:space="preserve xmlns="http://www.w3.org/2000/svg">
 <g>
  <path d="m22.153504,25.623986c0,0 4.701,-0.35 4.701,-5.863c0,-5.514 -3.846,-8.206 -8.719,-8.206l-8.97,0l-0.263,0l-6.802,0l0,30.815l6.802,0l0.263,0l8.97,0c0,0 9.788,0.309 9.788,-9.096c-0.001,0 0.427,-7.65 -5.77,-7.65zm-12.988,-8.592l7.815,0l1.154,0c0,0 2.18,0 2.18,3.205c0,3.207 -1.283,3.672 -2.736,3.672l-8.414,0l0,-6.877l0.001,0zm8.516,19.861c-0.237,0.006 -0.438,0 -0.573,0l-7.943,0l0,-8.234l8.97,0c0,0 3.249,-0.043 3.249,4.23c-0.001,3.606 -2.427,3.977 -3.703,4.004z"/>
  <path d="m40.979504,19.394986c-11.85,0 -11.84,11.84 -11.84,11.84s-0.812,11.779 11.84,11.779c0,0 10.545,0.602 10.545,-8.195l-5.424,0c0,0 0.18,3.314 -4.941,3.314c0,0 -5.422,0.361 -5.422,-5.363l15.967,0c-0.001,0 1.747,-13.375 -10.725,-13.375zm-5.303,9.264c0,0 0.662,-4.75 5.422,-4.75c4.762,0 4.699,4.75 4.699,4.75l-10.121,0z"/>
  <rect y="13.369986" x="34.350504" width="12.711" height="3.795"/>
 </g>
</svg>
