<svg width="256" height="256" viewBox="0 0 256 256" xmlns="http://www.w3.org/2000/svg">
 <g>
  <path stroke="null" d="m138.448716,126.751949l89.211832,-89.211832c2.955013,-2.955013 2.955013,-7.743315 0,-10.698328s-7.743315,-2.955013 -10.698328,0l-89.211832,89.211832l-89.211832,-89.21065c-2.955013,-2.955013 -7.743315,-2.955013 -10.698328,0s-2.955013,7.743315 0,10.698328l89.211832,89.21065l-89.211832,89.211832c-2.955013,2.955013 -2.955013,7.743315 0,10.698328c1.477506,1.477506 3.413631,2.216259 5.348573,2.216259s3.871067,-0.738753 5.348573,-2.216259l89.213014,-89.211832l89.211832,89.211832c1.477506,1.477506 3.413631,2.216259 5.348573,2.216259s3.871067,-0.738753 5.348573,-2.216259c2.955013,-2.955013 2.955013,-7.743315 0,-10.698328l-89.21065,-89.211832z"/>
 </g>
</svg>
