<svg width="1000" height="1000" xmlns="http://www.w3.org/2000/svg" viewBox="0 0 1000 1000" preserveAspectRatio="xMidYMid meet">
 <g>
  <path stroke="null" d="m942.555143,758.447102c0,19.853762 -6.948482,36.728753 -20.84619,50.626461l-101.252922,101.252922c-13.897708,13.897708 -30.772699,20.84619 -50.626461,20.84619s-36.728753,-6.948482 -50.626461,-20.84619l-218.884992,-218.884992l-218.884992,218.884992c-13.897708,13.897708 -30.772699,20.84619 -50.626461,20.84619s-36.728753,-6.948482 -50.626461,-20.84619l-101.252922,-101.252922c-13.897708,-13.897708 -20.84619,-30.772699 -20.84619,-50.626461s6.948482,-36.728753 20.84619,-50.626461l218.884992,-218.884992l-218.884992,-218.884992c-13.897708,-13.897708 -20.84619,-30.772699 -20.84619,-50.626461s6.948482,-36.728753 20.84619,-50.626461l101.252922,-101.252922c13.897708,-13.897708 30.772699,-20.84619 50.626461,-20.84619s36.728753,6.948482 50.626461,20.84619l218.884992,218.884992l218.884992,-218.884992c13.897708,-13.897708 30.772699,-20.84619 50.626461,-20.84619s36.728753,6.948482 50.626461,20.84619l101.252922,101.252922c13.897708,13.897708 20.84619,30.772699 20.84619,50.626461s-6.948482,36.728753 -20.84619,50.626461l-218.884992,218.884992l218.884992,218.884992c13.897708,13.897708 20.84619,30.772699 20.84619,50.626461z"/>
 </g>
</svg>
