<svg width="53" height="53" viewBox="0 0 53 53" xmlns="http://www.w3.org/2000/svg">
 <g>
  <path stroke="null" fill-rule="evenodd" d="m51.795114,21.432279c-0.338064,-1.656931 -0.846204,-3.288821 -1.50355,-4.847672c-0.645869,-1.530679 -1.447206,-3.00397 -2.377926,-4.381268c-0.923416,-1.365821 -1.982474,-2.649212 -3.149004,-3.814698c-1.165486,-1.167573 -2.449921,-2.227675 -3.814698,-3.149004c-1.377298,-0.93385 -2.852676,-1.732057 -4.381268,-2.380013c-1.558851,-0.656303 -3.189697,-1.165486 -4.847672,-1.501464c-1.697624,-0.348498 -3.446375,-0.525877 -5.19304,-0.525877c-1.748751,0 -3.495415,0.177379 -5.195126,0.525877c-1.656931,0.335977 -3.288821,0.846204 -4.846628,1.501464c-1.528592,0.647956 -3.00397,1.447206 -4.383355,2.380013c-1.365821,0.921329 -2.649212,1.980388 -3.814698,3.149004c-1.16653,1.165486 -2.224545,2.449921 -3.146917,3.814698c-0.931763,1.377298 -1.732057,2.85059 -2.377926,4.381268c-0.660477,1.558851 -1.16653,3.19074 -1.505637,4.847672c-0.347455,1.695537 -0.523791,3.444288 -0.523791,5.191996c0,1.750838 0.176336,3.499589 0.523791,5.19617c0.339107,1.656931 0.846204,3.288821 1.504594,4.846628c0.645869,1.528592 1.447206,3.006057 2.377926,4.383355c0.922372,1.365821 1.980388,2.647125 3.146917,3.814698c1.165486,1.165486 2.449921,2.223502 3.814698,3.146917c1.379385,0.931763 2.854763,1.732057 4.383355,2.377926c1.556764,0.660477 3.189697,1.163399 4.846628,1.50355c1.699711,0.350585 3.446375,0.525877 5.195126,0.525877c1.746664,0 3.495415,-0.175292 5.19304,-0.525877c1.659018,-0.340151 3.288821,-0.844117 4.847672,-1.50355c1.528592,-0.645869 3.00397,-1.447206 4.381268,-2.377926c1.365821,-0.923416 2.649212,-1.980388 3.814698,-3.146917c1.165486,-1.167573 2.225588,-2.449921 3.149004,-3.814698c0.931763,-1.377298 1.732057,-2.854763 2.377926,-4.383355c0.65839,-1.556764 1.165486,-3.189697 1.50355,-4.846628c0.348498,-1.697624 0.523791,-3.446375 0.523791,-5.19617c0.001043,-1.747708 -0.174249,-3.496459 -0.522747,-5.191996zm-3.249171,4.973924c-0.318239,-0.068865 -7.772343,-1.673626 -15.341222,-0.722038c-0.154424,-0.37667 -0.311979,-0.75647 -0.47475,-1.137314c-0.458056,-1.07784 -0.951588,-2.146289 -1.464944,-3.194914c8.699932,-3.549673 12.231867,-8.657153 12.27256,-8.71767c3.08953,3.750007 4.958273,8.543421 5.008356,13.771937zm-7.470798,-16.312634c-0.055301,0.085559 -3.191784,4.860192 -11.505655,7.976851c-3.765658,-6.918836 -7.902769,-12.414463 -8.233529,-12.850608c1.665278,-0.403799 3.401509,-0.621871 5.190953,-0.621871c5.578057,0 10.666756,2.078468 14.548232,5.495628zm-19.824744,-4.856019c0,0.002087 -0.004174,0.004174 -0.004174,0.004174s-0.023998,0.00626 -0.064691,0.014608c0.021912,-0.00626 0.046953,-0.010434 0.068865,-0.018781zm-4.122503,1.464944c0.293198,0.393365 4.367704,5.916121 8.180315,12.69201c-10.577023,2.809897 -19.755879,2.700339 -20.338101,2.689905c1.431555,-6.822842 6.015245,-12.480198 12.157785,-15.381915zm-12.628362,19.921781c0,-0.234767 0.010434,-0.464316 0.018781,-0.695953c0.388148,0.008347 11.272975,0.255635 22.613772,-3.13857c0.631262,1.235395 1.235395,2.490614 1.787357,3.74479c-0.291111,0.081386 -0.581178,0.169032 -0.868115,0.262939c-11.887543,3.841827 -17.917395,14.538841 -17.917395,14.538841s0.008347,0.00626 0.008347,0.010434c-3.506893,-3.903388 -5.642748,-9.063038 -5.642748,-14.722481zm22.027377,22.029464c-5.330769,0 -10.220177,-1.894828 -14.030702,-5.048006c0.289024,0.234767 0.493532,0.385017 0.493532,0.385017s4.22267,-9.209115 17.28509,-13.760459c0.04904,-0.018781 0.09808,-0.032346 0.14712,-0.046953c3.099964,8.054063 4.379182,14.799693 4.705768,16.72478c-2.643995,1.124793 -5.549885,1.745621 -8.600809,1.745621zm12.309079,-3.757311c-0.224333,-1.330345 -1.398166,-7.795298 -4.287362,-15.734586c7.109779,-1.137314 13.273188,0.812815 13.72707,0.962022c-0.980803,6.137323 -4.493956,11.431573 -9.439708,14.772564z" clip-rule="evenodd"/>
 </g>
</svg>
