<svg width="1000" height="1000" xmlns="http://www.w3.org/2000/svg" viewBox="0 0 1000 1000" preserveAspectRatio="xMidYMid meet">
 <g>
  <path stroke="null" d="m500.61573,868.866182c-8.448198,0 -15.596973,-2.924432 -21.445838,-8.773297l-304.140974,-293.418055c-3.249532,-2.599333 -7.71709,-6.823676 -13.403649,-12.672541s-14.703559,-16.490387 -27.051,-31.925054s-23.39546,-31.275343 -33.143568,-47.522027s-18.440009,-35.905694 -26.076189,-58.976054s-11.454027,-45.491009 -11.454027,-67.261946c0,-71.486289 20.633333,-127.375117 61.900487,-167.66746s98.293586,-60.43827 171.079298,-60.43827c20.145928,0 40.698351,3.493235 61.656784,10.479216s40.454649,16.409478 58.488649,28.269514s33.549576,22.989451 46.547216,33.38727s25.345081,21.445838 37.042811,33.143568c11.69773,-11.69773 24.045171,-22.745748 37.042811,-33.143568s28.513216,-21.527235 46.547216,-33.38727s37.530216,-21.283532 58.488649,-28.269514s41.510856,-10.479216 61.656784,-10.479216c72.785712,0 129.812144,20.145928 171.079298,60.43827s61.900487,96.181171 61.900487,167.66746c0,71.810901 -37.205117,144.921712 -111.615838,219.332433l-303.653569,292.443244c-5.848865,5.848865 -12.99764,8.773297 -21.445838,8.773297z"/>
 </g>
</svg>
