<svg height="128px" style="enable-background:new 0 0 128 128;" version="1.1" viewBox="0 0 128 128" width="128px" xml:space="preserve" xmlns="http://www.w3.org/2000/svg" xmlns:xlink="http://www.w3.org/1999/xlink">
<path d="M98.094,37.911c-0.369-1.387-1.12-2.863-1.674-4.157C89.77,17.78,75.246,12.053,63.518,12.053  c-15.702,0-32.994,10.527-35.303,32.229v4.434c0,0.185,0.063,1.846,0.156,2.678c1.294,10.342,9.453,21.334,15.548,31.676  c6.556,11.082,13.361,21.979,20.102,32.877c4.155-7.11,8.297-14.313,12.359-21.242c1.106-2.031,2.393-4.062,3.501-6.003  c0.738-1.291,2.148-2.584,2.794-3.785c6.556-12.005,17.11-24.104,17.11-36.016v-4.896C99.786,42.714,98.187,38.189,98.094,37.911z   M63.804,60.166c-4.616,0-9.666-2.308-12.16-8.68c-0.372-1.015-0.342-3.047-0.342-3.232V45.39c0-8.124,6.899-11.819,12.9-11.819  c7.389,0,13.103,5.91,13.103,13.298C77.305,54.258,71.192,60.166,63.804,60.166z"/></svg>
