<svg version="1.1" xmlns="http://www.w3.org/2000/svg" xmlns:xlink="http://www.w3.org/1999/xlink" x="0px" y="0px"
	 width="124.725px" height="124.725px" viewBox="-3.112 10.638 124.725 124.725"
	 enable-background="new -3.112 10.638 124.725 124.725" xml:space="preserve">
<g>
	<path d="M114.75,17.499c-4.572-4.574-10.081-6.861-16.522-6.861H20.273c-6.441,0-11.95,2.287-16.525,6.861
		c-4.574,4.574-6.861,10.083-6.861,16.524v77.954c0,6.44,2.287,11.949,6.861,16.524c4.575,4.574,10.083,6.861,16.525,6.861h77.954
		c6.441,0,11.95-2.287,16.522-6.861c4.575-4.575,6.862-10.084,6.862-16.524V34.022C121.612,27.582,119.325,22.072,114.75,17.499z
		 M100.825,111.977c0,0.757-0.242,1.38-0.73,1.866c-0.486,0.487-1.108,0.729-1.867,0.729H20.273c-0.758,0-1.381-0.242-1.868-0.729
		c-0.487-0.486-0.73-1.109-0.73-1.866V34.021c0-0.757,0.243-1.38,0.73-1.868c0.487-0.486,1.11-0.73,1.868-0.73h77.954
		c0.759,0,1.381,0.244,1.868,0.73c0.487,0.487,0.729,1.11,0.729,1.868L100.825,111.977L100.825,111.977z"/>
	<path d="M83.043,68.773L46.664,42.789c-1.679-1.245-3.464-1.38-5.359-0.406c-1.895,0.921-2.843,2.464-2.843,4.63v51.971
		c0,2.165,0.948,3.708,2.843,4.628c1.895,0.976,3.68,0.84,5.359-0.406l36.379-25.984c1.462-1.028,2.19-2.436,2.19-4.222
		C85.233,71.211,84.505,69.804,83.043,68.773z"/>
</g>
</svg>
