<svg version="1.1" xmlns="http://www.w3.org/2000/svg" xmlns:xlink="http://www.w3.org/1999/xlink" x="0px" y="0px"
	 width="566.929px" height="566.93px" viewBox="137.481 14.176 566.929 566.93"
	 enable-background="new 137.481 14.176 566.929 566.93" xml:space="preserve">
<g>
	<path d="M693.694,209.485c-1.536-16.924-3.744-32.044-6.613-45.385c-3.28-14.965-10.412-27.585-21.383-37.836
		c-10.978-10.25-23.746-16.197-38.307-17.847c-45.532-5.131-114.353-7.69-206.45-7.69c-92.102,0-160.916,2.56-206.449,7.69
		c-14.566,1.649-27.281,7.597-38.151,17.847c-10.876,10.251-17.953,22.871-21.228,37.836c-3.078,13.341-5.382,28.461-6.923,45.385
		c-1.536,16.924-2.411,30.925-2.613,42.003c-0.209,11.066-0.304,26.454-0.304,46.152c0,19.686,0.101,35.067,0.304,46.151
		c0.202,11.066,1.077,25.073,2.613,41.991c1.541,16.924,3.738,32.057,6.613,45.385c3.28,14.989,10.411,27.597,21.383,37.848
		c10.971,10.263,23.739,16.216,38.306,17.847c45.533,5.131,114.348,7.69,206.449,7.69c92.097,0,160.911-2.56,206.45-7.69
		c14.561-1.637,27.276-7.584,38.151-17.847c10.87-10.251,17.948-22.858,21.229-37.848c3.077-13.328,5.381-28.461,6.923-45.385
		c1.536-16.924,2.411-30.925,2.613-41.991c0.202-11.078,0.31-26.466,0.31-46.151c0-19.698-0.107-35.08-0.31-46.152
		C696.105,240.404,695.23,226.403,693.694,209.485z M529.861,314.249l-157.53,98.453c-2.875,2.054-6.357,3.077-10.459,3.077
		c-3.078,0-6.257-0.815-9.536-2.464c-6.769-3.691-10.156-9.424-10.156-17.222V199.18c0-7.786,3.382-13.542,10.156-17.233
		c6.971-3.69,13.638-3.471,19.995,0.613l157.53,98.453c6.155,3.501,9.232,9.037,9.232,16.62
		C539.088,305.236,536.01,310.772,529.861,314.249z"/>
</g>
</svg>
