<svg width="1000" height="1000" xmlns="http://www.w3.org/2000/svg" viewBox="0 0 1000 1000" preserveAspectRatio="xMidYMid meet">
  <path stroke="null" d="m948.715268,441.294671l0,122.834987c0,17.060628 -5.970932,31.561554 -17.913436,43.504058s-26.44343,17.913436 -43.504058,17.913436l-266.142472,0l0,266.142472c0,17.060628 -5.970932,31.561554 -17.913436,43.504058s-26.44343,17.913436 -43.504058,17.913436l-122.834987,0c-17.060628,0 -31.561554,-5.970932 -43.504058,-17.913436s-17.913436,-26.44343 -17.913436,-43.504058l0,-266.142472l-266.142472,0c-17.060628,0 -31.561554,-5.970932 -43.504058,-17.913436s-17.913436,-26.44343 -17.913436,-43.504058l0,-122.834987c0,-17.060628 5.970932,-31.561554 17.913436,-43.504058s26.44343,-17.913436 43.504058,-17.913436l266.142472,0l0,-266.142472c0,-17.060628 5.970932,-31.561554 17.913436,-43.504058s26.44343,-17.913436 43.504058,-17.913436l122.834987,0c17.060628,0 31.561554,5.970932 43.504058,17.913436s17.913436,26.44343 17.913436,43.504058l0,266.142472l266.142472,0c17.060628,0 31.561554,5.970932 43.504058,17.913436s17.913436,26.44343 17.913436,43.504058z"/>
 </g>
</svg>
