<svg width="1000" height="1000" xmlns="http://www.w3.org/2000/svg" viewBox="0 0 1000 1000" preserveAspectRatio="xMidYMid meet">
 <g>
  <path stroke="null" d="m949.059238,403.703948c0,7.90763 -4.672764,16.533939 -14.017753,25.878928l-195.709392,190.857093l46.366412,269.572165c0.359609,2.516187 0.539144,6.110123 0.539144,10.782887c0,7.548021 -1.887005,13.927715 -5.661015,19.139624s-9.255491,7.817593 -16.443902,7.817593c-6.829341,0 -14.017753,-2.156577 -21.565773,-6.469732l-242.075804,-127.238062l-242.075804,127.238062c-7.90763,4.313155 -15.096041,6.469732 -21.565773,6.469732c-7.548021,0 -13.209036,-2.605685 -16.983046,-7.817593s-5.661015,-11.591603 -5.661015,-19.139624c0,-2.156577 0.359609,-5.751053 1.078289,-10.782887l46.366412,-269.572165l-196.248536,-190.857093c-8.985919,-9.704598 -13.478608,-18.330907 -13.478608,-25.878928c0,-13.299073 10.064207,-21.565773 30.192082,-24.800639l270.650454,-39.357536l121.307474,-245.31067c6.829341,-14.736432 15.635186,-22.104918 26.418072,-22.104918s19.588731,7.368486 26.418072,22.104918l121.307474,245.31067l270.650454,39.357536c20.127875,3.234866 30.192082,11.501566 30.192082,24.800639z"/>
 </g>
</svg>
