<svg width="56" height="56" viewBox="0 0 56 56" xmlns="http://www.w3.org/2000/svg">
 <g>
  <path stroke="null" d="m29.881224,4.06393l0,11.042327l11.040387,0l0,8.526489l-11.040387,0l0,12.243487c0,2.770042 -0.033958,4.368031 0.258084,5.152957c0.292043,0.781045 1.023606,1.592168 1.819204,2.059824c1.059505,0.634538 2.262605,0.950837 3.622885,0.950837c2.417844,0 4.823074,-0.784926 7.214721,-2.355748l0,7.52908c-2.037509,0.96054 -3.88679,1.637769 -5.541054,2.021985c-1.656204,0.384216 -3.44339,0.582145 -5.36641,0.582145c-2.183045,0 -3.471527,-0.276519 -5.147135,-0.824706c-1.678519,-0.554979 -3.109626,-1.343786 -4.292352,-2.357689c-1.188547,-1.021665 -2.006461,-2.107366 -2.464415,-3.255163c-0.458925,-1.150707 -0.687902,-2.817584 -0.687902,-5.000629l0,-16.746381l-6.48704,0l0,-6.763559c1.875478,-0.608342 4.049791,-1.48156 5.384845,-2.618684c1.340875,-1.141005 2.413963,-2.505166 3.221204,-4.101214c0.813063,-1.592168 1.369982,-3.622885 1.675608,-6.084389l6.789755,0l0,-0.00097z"/>
 </g>
</svg>
