<svg width="56" height="56" viewBox="0 0 56 56" xmlns="http://www.w3.org/2000/svg">
 <g>
  <path stroke="null" d="m40.547781,39.216619l-8.739382,0c-6.217901,0 -7.209052,-2.751217 -7.209052,-5.301766c0,-1.210573 0.075016,-3.20694 0.150032,-5.651529l14.601894,0c2.184845,0 6.354806,-0.895505 6.354806,-4.892928c0,-3.99461 -1.925102,-6.613611 -4.503782,-6.613611l-16.271003,0c-0.016879,-5.764991 -0.391959,-11.508415 -6.022859,-11.508415c-2.328314,0 -4.217783,0.956456 -5.01483,3.331655c-1.045538,3.120672 -0.768916,6.774896 -0.755788,10.024033c0.003751,0.617008 0.006564,1.237766 0.008439,1.85665c0.007502,2.128583 0.050636,4.269357 0.060013,6.408255c0.005626,2.302058 0.008439,4.604116 0.008439,6.904299c0,12.88965 11.715647,16.541999 13.962381,16.541999s11.048941,0.209108 12.639284,0.209108s6.1532,-0.421028 6.1532,-5.036397s-3.236947,-6.27135 -5.421792,-6.27135z"/>
 </g>
</svg>
