<svg width="56" height="56" viewBox="0 0 56 56" xmlns="http://www.w3.org/2000/svg">
 <g>
  <path stroke="null" d="m2.619184,18.37655l2.045481,2.682531c0,0 4.219186,-3.32467 5.625581,-1.662844c1.406395,1.662844 6.773493,21.733997 8.565578,25.438251c1.564131,3.248346 5.878976,7.543855 10.610041,4.474617c4.728012,-3.067204 20.452773,-16.491053 23.266581,-32.342003c2.812791,-15.848915 -18.922224,-12.530351 -21.222118,1.278171c5.75177,-3.454929 8.824062,1.40436 5.879994,6.903752c-2.939997,5.494304 -5.624563,9.078475 -7.029941,9.078475c-1.403342,0 -2.484089,-3.67576 -4.091979,-10.103251c-1.663861,-6.645269 -1.652667,-18.613876 -8.564561,-17.257345c-6.51908,1.279189 -15.084658,11.509646 -15.084658,11.509646z"/>
 </g>
</svg>
